<svg xmlns="http://www.w3.org/2000/svg" width="223.5" height="124.641" viewBox="0 0 223.5 124.641"><g transform="translate(0 0.041)"><path d="M223.5,43.1A197.676,197.676,0,0,0,197.1,23,123.655,123.655,0,0,0,167.3,9.3l-2-.6a11.7,11.7,0,0,0-2-.5l-4-.9-2-.4c-.7-.1-1.3-.2-2-.3l-4-.6c-1.3-.2-2.7-.2-4-.4l-4-.3-4,.1a26.8,26.8,0,0,0-4,.2,92.628,92.628,0,0,0-31,7.9A124.426,124.426,0,0,0,77.1,30.6a182.644,182.644,0,0,0-23,22.7,235,235,0,0,0-19.5,26c-6,9.1-11.5,18.4-16.8,28h0a7.272,7.272,0,0,1-10,2.9,7.272,7.272,0,0,1-2.9-10c.1-.1.1-.2.2-.3,5.9-9.6,12.2-19,19-28.1A257.493,257.493,0,0,1,46,45.8,203.881,203.881,0,0,1,71.6,23.2a129.064,129.064,0,0,1,30-16.6A100.232,100.232,0,0,1,135,0a30.879,30.879,0,0,1,4.3.1l4.3.2,4.2.5c1.4.2,2.8.3,4.2.6l4.2.8c.7.1,1.4.3,2.1.4l2,.6,4.1,1.2a11.765,11.765,0,0,1,2,.7l2,.7a127.952,127.952,0,0,1,29.7,15.7A181.183,181.183,0,0,1,223.5,43.1Z"/><path d="M3.9,86.7l10,12.6,16,1.6L0,124.6Z"/></g></svg>