<svg id="external" xmlns="http://www.w3.org/2000/svg" width="16" height="16" viewBox="0 0 16 16">
  <g>
    <path d="M11.9,7.8l-.4.4-.5.4-.4.4v4.7a.43.43,0,0,1-.4.4h-8a.43.43,0,0,1-.4-.4V5.9a.43.43,0,0,1,.4-.4H7L7.4,5l.4-.4.4-.4.4-.4H2.2a2.5,2.5,0,0,0-1.3.4c-.2,0-.3.2-.5.3A3.255,3.255,0,0,0,0,5.9v7.9a2.5,2.5,0,0,0,.4,1.3c.1.2.3.3.4.4a2.654,2.654,0,0,0,1.4.5h7.9a2.5,2.5,0,0,0,1.3-.4c.2-.1.3-.3.4-.4a2.01,2.01,0,0,0,.4-1.3V7.3Z" fill="#fff"/>
  </g>
  <path d="M6.5,10.2c-.2,0-.3-.1-.5-.2A.908.908,0,0,1,6,9l7.7-7.7H9.6A.684.684,0,0,1,8.9.6h0A.669.669,0,0,1,9.6,0h5.9a.367.367,0,0,1,.3.1.845.845,0,0,1,.2.6V7a.669.669,0,0,1-.6.7.684.684,0,0,1-.7-.7V2.3L7,10C6.8,10.1,6.7,10.2,6.5,10.2Z" fill="#fff"/>
</svg>
