<svg xmlns="http://www.w3.org/2000/svg" width="30" height="30" viewBox="0 0 30 30"><path d="M9,21.4a2.5,2.5,0,1,0,2.5,2.5A2.54,2.54,0,0,0,9,21.4Z"/><path d="M15.9,17.7A3.783,3.783,0,0,1,13,16.2a3.164,3.164,0,0,0-2.4-1.5H7.4A3.007,3.007,0,0,0,5,16.2a3.783,3.783,0,0,1-2.9,1.5C1,17.7,0,19,0,20.7V27a3.076,3.076,0,0,0,3,3H15a3.009,3.009,0,0,0,3-3V20.7C17.9,19,17,17.7,15.9,17.7ZM9,27.9a4,4,0,1,1,4-4A4.012,4.012,0,0,1,9,27.9Z"/><path d="M27.2,0H21.6V2.6h5.6a.319.319,0,0,1,.3.3V8.5H30V2.8A2.862,2.862,0,0,0,27.2,0Z"/><path d="M0,2.8V8.4H2.6V2.8a.319.319,0,0,1,.3-.3H8.5V0H2.8A2.862,2.862,0,0,0,0,2.8Z"/><path d="M12.1,1.3V2.6h5.8V0H12.1Z"/><path d="M0,12.1v2.2H2.6V12.1"/><path d="M27.4,12.1v5.8H30V12.1H27.4Z"/><path d="M27.4,21.5v5.6a.319.319,0,0,1-.3.3H21.5V30h5.6a2.8,2.8,0,0,0,2.8-2.8V21.6H27.4Z"/></svg>